<svg width="384" height="762" viewBox="0 0 384 762" fill="none" xmlns="http://www.w3.org/2000/svg">
  <defs>
    <linearGradient id="gradTop" x1="72" y1="120" x2="312" y2="276" gradientUnits="userSpaceOnUse">
      <stop stop-color="#1D4ED8"/>
      <stop offset="1" stop-color="#2563EB"/>
    </linearGradient>
    <linearGradient id="gradBtn" x1="72" y1="590" x2="312" y2="642" gradientUnits="userSpaceOnUse">
      <stop stop-color="#2563EB"/>
      <stop offset="1" stop-color="#1D4ED8"/>
    </linearGradient>
  </defs>
  <rect x="32" y="18" width="320" height="726" rx="48" fill="#05070F"/>
  <rect x="56" y="70" width="272" height="616" rx="32" fill="#0B1220"/>
  <rect x="96" y="36" width="192" height="12" rx="6" fill="#192033"/>
  <rect x="176" y="708" width="32" height="12" rx="6" fill="#192033"/>

  <rect x="96" y="96" width="192" height="12" rx="6" fill="#141B2C"/>

  <rect x="72" y="126" width="240" height="160" rx="32" fill="url(#gradTop)"/>
  <rect x="96" y="148" width="194" height="32" rx="16" fill="#3B82F6" opacity="0.4"/>
  <rect x="96" y="192" width="64" height="14" rx="7" fill="#FCD34D"/>
  <rect x="96" y="212" width="156" height="12" rx="6" fill="#E0F2FE"/>
  <rect x="96" y="232" width="120" height="12" rx="6" fill="#DBEAFE" opacity="0.9"/>
  <rect x="224" y="192" width="72" height="36" rx="18" fill="#111827"/>
  <rect x="236" y="204" width="48" height="12" rx="6" fill="#38BDF8"/>

  <rect x="108" y="260" width="180" height="64" rx="20" fill="#F8FAFC" opacity="0.96"/>
  <rect x="120" y="278" width="40" height="40" rx="20" fill="#2563EB" opacity="0.15"/>
  <rect x="172" y="278" width="40" height="40" rx="20" fill="#0EA5E9" opacity="0.15"/>
  <rect x="224" y="278" width="40" height="40" rx="20" fill="#F59E0B" opacity="0.2"/>
  <rect x="118" y="324" width="48" height="8" rx="4" fill="#0F172A"/>
  <rect x="170" y="324" width="56" height="8" rx="4" fill="#0F172A"/>
  <rect x="224" y="324" width="40" height="8" rx="4" fill="#0F172A"/>

  <rect x="72" y="342" width="240" height="140" rx="28" fill="#0F172A" stroke="#142147" stroke-width="2"/>
  <rect x="96" y="360" width="90" height="12" rx="6" fill="#E0F2FE"/>
  <rect x="200" y="360" width="90" height="12" rx="6" fill="#A5B4FC"/>
  <path d="M88 428C112 402 148 388 180 394C206 400 228 420 256 436C272 446 294 448 308 440" stroke="#34D399" stroke-width="8" stroke-linecap="round"/>
  <path d="M88 448C120 420 154 406 188 414C210 420 238 440 266 452C280 458 298 456 308 450" stroke="#F472B6" stroke-width="6" stroke-dasharray="10 12" stroke-linecap="round"/>
  <rect x="96" y="460" width="64" height="12" rx="6" fill="#34D399"/>
  <rect x="176" y="460" width="64" height="12" rx="6" fill="#FBBF24"/>
  <rect x="256" y="460" width="40" height="12" rx="6" fill="#38BDF8"/>

  <rect x="72" y="496" width="240" height="120" rx="24" fill="#111C30" stroke="#1D4ED8" stroke-width="2"/>
  <rect x="96" y="516" width="140" height="12" rx="6" fill="#E0F2FE"/>
  <rect x="96" y="536" width="100" height="10" rx="5" fill="#A5B4FC"/>
  <rect x="96" y="556" width="84" height="44" rx="14" fill="#2563EB" opacity="0.3"/>
  <rect x="108" y="572" width="52" height="12" rx="6" fill="#DBEAFE"/>
  <rect x="196" y="552" width="104" height="12" rx="6" fill="#F8FAFC" opacity="0.6"/>
  <rect x="196" y="572" width="80" height="10" rx="5" fill="#E2E8F0"/>
  <rect x="196" y="592" width="60" height="8" rx="4" fill="#C7D2FE"/>

  <rect x="72" y="630" width="240" height="56" rx="18" fill="url(#gradBtn)"/>
  <rect x="96" y="650" width="120" height="12" rx="6" fill="#DBEAFE"/>
  <rect x="232" y="646" width="48" height="20" rx="10" fill="#0EA5E9"/>

  <rect x="128" y="702" width="128" height="16" rx="8" fill="#192033"/>
</svg>

